<svg width="27" height="24" viewBox="0 0 27 24" fill="none" xmlns="http://www.w3.org/2000/svg"><path d="M6 0H3v3h3V0z" fill="black"/><path d="M9 0H6v3h3V0z" fill="black"/><path d="M3 3H0v3h3V3z" fill="black"/><path d="M3 6H0v3h3V6z" fill="black"/><path d="M3 9H0v3h3V9z" fill="black"/><path d="M12 0H9v3h3V0z" fill="black"/><path d="M6 12H3v3h3v-3z" fill="black"/><path d="M9 15H6v3h3v-3z" fill="black"/><path d="M12 18H9v3h3v-3z" fill="black"/><path d="M21 0h3v3h-3V0z" fill="black"/><path d="M18 0h3v3h-3V0z" fill="black"/><path d="M24 3h3v3h-3V3z" fill="black"/><path d="M24 6h3v3h-3V6z" fill="black"/><path d="M24 9h3v3h-3V9z" fill="black"/><path d="M15 0h3v3h-3V0z" fill="black"/><path d="M21 12h3v3h-3v-3z" fill="black"/><path d="M18 15h3v3h-3v-3z" fill="black"/><path d="M15 18h3v3h-3v-3z" fill="black"/><path d="M15 3h-3v3h3V3z" fill="black"/><path d="M15 21h-3v3h3v-3z" fill="black"/></svg>